<?xml version="1.0" encoding="utf-8"?>
<!-- Generator: Adobe Illustrator 27.1.1, SVG Export Plug-In . SVG Version: 6.00 Build 0)  -->
<svg version="1.1" id="Layer_1" xmlns="http://www.w3.org/2000/svg" xmlns:xlink="http://www.w3.org/1999/xlink" x="0px" y="0px"
	 viewBox="0 0 214 49" style="enable-background:new 0 0 214 49;" xml:space="preserve">
<style type="text/css">
	.st0{fill:#142744;stroke:#142744;stroke-width:0.9;stroke-miterlimit:10;}
	.st1{fill-rule:evenodd;clip-rule:evenodd;fill:#142744;}
	.st2{fill-rule:evenodd;clip-rule:evenodd;fill:#00ADEE;}
	.st3{fill-rule:evenodd;clip-rule:evenodd;fill:#D0D2D3;}
</style>
<g>
	<path class="st0" d="M9.31,40.98c-1.52,0-2.9-0.4-4.16-1.2c-1.26-0.8-2.25-1.93-2.98-3.39c-0.73-1.47-1.1-3.22-1.1-5.26
		c0-2.01,0.31-4.05,0.94-6.1c0.63-2.05,1.49-4.01,2.59-5.88c1.1-1.87,2.38-3.54,3.85-5.02c1.46-1.48,3.03-2.64,4.69-3.49
		c1.66-0.85,3.37-1.27,5.12-1.27c0.26,0,0.65,0.05,1.16,0.16c0.51,0.1,1.01,0.42,1.51,0.94c-0.16-0.03-0.33-0.05-0.53-0.06
		c-0.2-0.01-0.4-0.02-0.61-0.02c-1.36,0-2.73,0.43-4.12,1.27c-1.39,0.85-2.71,1.99-3.96,3.43c-1.26,1.44-2.37,3.07-3.35,4.88
		c-0.98,1.82-1.76,3.71-2.33,5.67c-0.58,1.96-0.86,3.87-0.86,5.73c0,1.36,0.18,2.63,0.55,3.81c0.37,1.18,0.95,2.13,1.77,2.84
		c0.81,0.72,1.88,1.08,3.22,1.08c1.44,0,2.79-0.43,4.04-1.3c1.26-0.86,2.39-2.02,3.41-3.47c1.02-1.45,1.9-3.07,2.63-4.86
		c0.73-1.79,1.29-3.64,1.69-5.53c0.39-1.9,0.59-3.71,0.59-5.43c0-0.76-0.05-1.57-0.16-2.45c-0.1-0.88-0.28-1.63-0.53-2.26
		c-0.25-0.63-0.61-0.94-1.08-0.94c-0.44,0-0.93,0.28-1.45,0.84c-0.52,0.56-1.03,1.27-1.53,2.14c-0.5,0.86-0.94,1.77-1.31,2.73
		c-0.38,0.96-0.65,1.81-0.8,2.57c-0.89-0.18-1.52-0.47-1.9-0.86c-0.38-0.39-0.57-0.86-0.57-1.41c0-0.71,0.25-1.49,0.75-2.35
		c0.5-0.86,1.14-1.69,1.94-2.49c0.8-0.8,1.63-1.46,2.51-1.98c0.88-0.52,1.69-0.78,2.45-0.78c0.78,0,1.42,0.28,1.9,0.84
		c0.48,0.56,0.86,1.29,1.12,2.18c0.26,0.89,0.44,1.84,0.55,2.84c0.1,1.01,0.16,1.94,0.16,2.8c0,2.67-0.33,5.11-0.98,7.32
		c-0.65,2.21-1.54,4.17-2.65,5.86c-1.11,1.7-2.35,3.14-3.73,4.32s-2.79,2.07-4.24,2.67C12.04,40.68,10.64,40.98,9.31,40.98z"/>
	<path class="st0" d="M29.95,39.77c-1.36,0-2.48-0.43-3.35-1.28c-0.88-0.85-1.31-2.15-1.31-3.9c0-1.28,0.25-2.54,0.75-3.77
		c0.5-1.23,1.16-2.33,2-3.31c0.84-0.98,1.77-1.76,2.8-2.33c1.03-0.58,2.09-0.86,3.16-0.86c1.1,0,1.89,0.27,2.37,0.82
		c0.48,0.55,0.73,1.19,0.73,1.92c0,0.73-0.18,1.45-0.53,2.14c-0.35,0.69-0.83,1.04-1.43,1.04c-0.5,0-0.9-0.25-1.22-0.75
		c0.26-0.18,0.54-0.52,0.82-1.02c0.29-0.5,0.43-1.14,0.43-1.92c0-0.21-0.05-0.37-0.16-0.49c-0.1-0.12-0.3-0.18-0.59-0.18
		c-0.65,0-1.34,0.29-2.06,0.88c-0.72,0.59-1.39,1.35-2,2.28c-0.61,0.93-1.11,1.91-1.49,2.94c-0.38,1.03-0.57,1.98-0.57,2.84
		c0,0.73,0.19,1.41,0.57,2.02c0.38,0.61,1.12,0.92,2.22,0.92c0.99,0,2.03-0.29,3.1-0.86c1.07-0.58,2.08-1.38,3.02-2.41
		c0.94-1.03,1.7-2.27,2.28-3.71l0.78,0.71c-0.63,1.6-1.5,3.01-2.61,4.26c-1.11,1.24-2.34,2.22-3.69,2.94
		C32.62,39.41,31.28,39.77,29.95,39.77z"/>
	<path class="st0" d="M43.13,39.3c-1.67,0-2.96-0.45-3.86-1.35c-0.9-0.9-1.35-2.03-1.35-3.39c0-1.15,0.29-2.37,0.88-3.67
		c0.59-1.3,1.38-2.51,2.37-3.65c0.99-1.14,2.09-2.06,3.3-2.77c1.2-0.71,2.41-1.06,3.61-1.06c0.68,0,1.33,0.18,1.94,0.53
		c0.61,0.35,0.92,1.05,0.92,2.1c0,0.99-0.29,1.92-0.86,2.78c-0.58,0.86-1.35,1.64-2.31,2.31c-0.97,0.68-2.03,1.24-3.2,1.67
		c-1.16,0.43-2.33,0.71-3.51,0.84c-0.03,0.1-0.05,0.22-0.06,0.33c-0.01,0.12-0.02,0.31-0.02,0.57c0,0.13,0.02,0.36,0.06,0.69
		c0.04,0.33,0.15,0.67,0.33,1.04c0.18,0.37,0.48,0.68,0.9,0.94c0.42,0.26,0.99,0.39,1.73,0.39c1.1,0,2.2-0.31,3.31-0.92
		c1.11-0.61,2.16-1.43,3.14-2.45s1.8-2.16,2.45-3.41l0.78,0.63c-0.71,1.57-1.62,2.94-2.73,4.12c-1.11,1.18-2.34,2.09-3.69,2.75
		C45.92,38.97,44.54,39.3,43.13,39.3z M41.48,32.2c0.68-0.08,1.44-0.31,2.28-0.71c0.84-0.39,1.64-0.89,2.41-1.49
		c0.77-0.6,1.41-1.26,1.9-1.98c0.5-0.72,0.75-1.45,0.75-2.18c0-0.29-0.05-0.48-0.16-0.59c-0.1-0.1-0.28-0.16-0.51-0.16
		c-0.6,0-1.23,0.22-1.88,0.65c-0.65,0.43-1.29,0.99-1.92,1.69c-0.63,0.69-1.19,1.46-1.69,2.29C42.16,30.56,41.77,31.39,41.48,32.2z"
		/>
	<path class="st0" d="M54.15,39.41c-0.86,0-1.62-0.29-2.26-0.86c-0.64-0.58-0.96-1.44-0.96-2.59c0-0.92,0.21-1.91,0.63-2.98
		s0.99-2.13,1.73-3.18c0.73-1.05,1.57-1.99,2.51-2.84c0.94-0.85,1.95-1.54,3.02-2.06c1.07-0.52,2.14-0.78,3.22-0.78
		c1.12,0,2.08,0.29,2.86,0.86c0.78,0.58,1.18,1.33,1.18,2.28c0,0.71-0.25,1.22-0.75,1.53c-0.5,0.31-1.09,0.4-1.76,0.27
		c0.05-0.24,0.1-0.47,0.14-0.71c0.04-0.23,0.06-0.48,0.06-0.75c0-0.52-0.11-0.99-0.31-1.41c-0.21-0.42-0.65-0.63-1.33-0.63
		c-0.73,0-1.48,0.25-2.24,0.75c-0.76,0.5-1.49,1.14-2.18,1.94c-0.69,0.8-1.31,1.67-1.86,2.63c-0.55,0.96-0.98,1.89-1.3,2.8
		c-0.31,0.92-0.47,1.74-0.47,2.47c0,0.84,0.3,1.26,0.9,1.26s1.27-0.29,2-0.88c0.73-0.59,1.47-1.33,2.22-2.22
		c0.75-0.89,1.46-1.8,2.14-2.73c0.68-0.93,1.27-1.72,1.76-2.37c0.08-0.13,0.18-0.2,0.31-0.2c0.1,0.03,0.31,0.09,0.61,0.18
		c0.3,0.09,0.58,0.23,0.84,0.41c0.26,0.18,0.39,0.42,0.39,0.71c0,0.26-0.11,0.59-0.33,1c-0.22,0.41-0.48,0.85-0.78,1.33
		c-0.3,0.48-0.56,0.97-0.78,1.45c-0.22,0.48-0.33,0.95-0.33,1.39c0,0.34,0.09,0.66,0.28,0.96c0.18,0.3,0.48,0.45,0.9,0.45
		c0.63,0,1.51-0.46,2.65-1.39c1.14-0.93,2.3-2.5,3.47-4.73l0.75,0.75c-0.63,1.41-1.38,2.66-2.26,3.75c-0.88,1.09-1.8,1.94-2.76,2.55
		c-0.97,0.61-1.95,0.92-2.94,0.92c-1.07,0-1.87-0.34-2.39-1.02c-0.52-0.68-0.81-1.41-0.86-2.2c0-0.05,0-0.09,0-0.12
		c0-0.03,0-0.05,0-0.08c-1.05,1.25-2.01,2.25-2.88,2.98S55.15,39.41,54.15,39.41z"/>
	<path class="st0" d="M82.6,38.36c-1.02,0-1.8-0.25-2.33-0.77c-0.54-0.51-0.8-1.16-0.8-1.94c0-0.52,0.09-1.08,0.27-1.67
		c0.18-0.59,0.37-1.18,0.55-1.79c0.18-0.6,0.28-1.18,0.28-1.73c0-0.58-0.14-0.97-0.41-1.2c-0.27-0.22-0.59-0.33-0.96-0.33
		c-0.78,0-1.59,0.32-2.41,0.96c-0.82,0.64-1.62,1.45-2.39,2.41c-0.77,0.97-1.5,1.98-2.18,3.02c-0.68,1.05-1.27,1.99-1.76,2.82
		c-0.5,0-0.97-0.08-1.41-0.25c-0.44-0.17-0.82-0.46-1.14-0.88c0.03-0.13,0.18-0.53,0.45-1.2c0.27-0.67,0.58-1.46,0.92-2.39
		c0.34-0.93,0.64-1.9,0.9-2.92c0.26-1.02,0.39-1.95,0.39-2.78c0.18-0.21,0.46-0.42,0.84-0.63c0.38-0.21,0.78-0.31,1.2-0.31
		c0.92,0,1.37,0.39,1.37,1.18c0,0.31-0.06,0.78-0.18,1.39c-0.12,0.61-0.28,1.31-0.49,2.1c0.68-0.92,1.43-1.78,2.24-2.59
		c0.81-0.81,1.65-1.47,2.53-1.98c0.88-0.51,1.76-0.77,2.65-0.77c1.12,0,1.95,0.38,2.49,1.14c0.54,0.76,0.8,1.59,0.8,2.51
		c0,0.78-0.13,1.52-0.39,2.2c-0.26,0.68-0.52,1.32-0.77,1.92c-0.25,0.6-0.37,1.19-0.37,1.77c0,0.42,0.1,0.71,0.29,0.88
		c0.2,0.17,0.41,0.25,0.65,0.25c0.63,0,1.28-0.3,1.96-0.9c0.68-0.6,1.33-1.37,1.94-2.3c0.61-0.93,1.16-1.86,1.63-2.8l0.67,0.55
		c-0.55,1.28-1.17,2.45-1.86,3.51c-0.69,1.06-1.46,1.91-2.31,2.55C84.59,38.03,83.64,38.36,82.6,38.36z"/>
	<path class="st0" d="M97.78,40.98c-0.26,0-0.6-0.04-1.02-0.12c-0.42-0.08-0.84-0.23-1.27-0.45c-0.43-0.22-0.79-0.57-1.08-1.04
		c-0.29-0.47-0.43-1.1-0.43-1.88c0-0.65,0.13-1.51,0.39-2.57s0.71-2.61,1.33-4.65c0.47-1.54,0.94-3.07,1.39-4.57
		c0.46-1.5,0.84-3.07,1.14-4.69c0.3-1.62,0.45-3.35,0.45-5.18c0-1.07-0.07-1.97-0.2-2.71c-0.13-0.73-0.37-1.29-0.73-1.67
		c-0.35-0.38-0.84-0.57-1.47-0.57c-0.63,0-1.18,0.17-1.65,0.51c-0.47,0.34-0.86,0.79-1.18,1.35c-0.31,0.56-0.55,1.18-0.71,1.86
		c-0.16,0.68-0.24,1.36-0.24,2.04c0,1.15,0.2,2.11,0.59,2.86c-1.28,0-2.21-0.3-2.78-0.9c-0.58-0.6-0.86-1.35-0.86-2.24
		c0-0.78,0.2-1.6,0.59-2.43c0.39-0.84,0.94-1.6,1.63-2.3c0.69-0.69,1.5-1.26,2.41-1.69c0.92-0.43,1.9-0.65,2.94-0.65
		c1.78,0,3.13,0.65,4.06,1.96c0.93,1.31,1.39,3.17,1.39,5.57c0,1.8-0.24,3.68-0.73,5.63c-0.49,1.95-1.09,4.07-1.82,6.38
		c-0.26,0.84-0.57,1.76-0.92,2.77c-0.35,1.01-0.67,2.04-0.94,3.1s-0.41,2.11-0.41,3.16c0,0.5,0.06,0.84,0.18,1.04
		c0.12,0.2,0.35,0.29,0.69,0.29c0.71,0,1.46-0.3,2.26-0.9c0.8-0.6,1.6-1.41,2.41-2.43c0.81-1.02,1.59-2.16,2.33-3.41
		c0.75-1.25,1.43-2.54,2.06-3.86s1.15-2.58,1.57-3.77c0.42-1.19,0.69-2.23,0.82-3.12c0.99,0,1.76,0.27,2.31,0.82
		c0.55,0.55,0.82,1.07,0.82,1.57c0,0.26-0.11,0.71-0.33,1.33c-0.22,0.63-0.59,1.56-1.12,2.78c-0.42,0.99-0.85,2.05-1.3,3.16
		c-0.44,1.11-0.82,2.21-1.12,3.3c-0.3,1.09-0.45,2.1-0.45,3.04c0,0.52,0.07,0.9,0.22,1.14c0.14,0.23,0.41,0.35,0.8,0.35
		c0.73,0,1.57-0.36,2.53-1.08s1.94-1.7,2.96-2.94c1.02-1.24,2.01-2.64,2.98-4.2c0.97-1.56,1.84-3.17,2.63-4.84
		c0.78-1.67,1.41-3.32,1.86-4.94c0.46-1.62,0.69-3.1,0.69-4.43c0-1.44-0.25-2.46-0.77-3.06c-0.51-0.6-1.14-1.03-1.9-1.29
		c0.47-0.76,0.97-1.31,1.51-1.67c0.54-0.35,1.01-0.53,1.43-0.53c0.6,0,1.22,0.39,1.86,1.16c0.64,0.77,0.96,1.98,0.96,3.63
		c0,1.39-0.27,2.98-0.8,4.79c-0.54,1.8-1.27,3.68-2.2,5.63c-0.93,1.95-1.99,3.84-3.18,5.69c-1.19,1.84-2.46,3.51-3.81,5
		c-1.35,1.49-2.7,2.67-4.06,3.55c-1.36,0.88-2.66,1.32-3.88,1.32c-0.68,0-1.29-0.14-1.82-0.41c-0.54-0.27-0.96-0.67-1.25-1.18
		c-0.3-0.51-0.45-1.11-0.45-1.78c0-0.31,0.04-0.64,0.12-0.98c0.08-0.34,0.17-0.68,0.27-1.02c-1.28,1.62-2.57,2.92-3.86,3.9
		C100.35,40.49,99.06,40.98,97.78,40.98z"/>
	<path class="st0" d="M128.66,38.75c-1.15,0-2.01-0.34-2.59-1.02c-0.58-0.68-0.86-1.5-0.86-2.47c0-0.6,0.11-1.36,0.31-2.28
		s0.5-1.88,0.88-2.88c0.38-1.01,0.82-1.95,1.32-2.84c0.5-0.89,1.03-1.61,1.61-2.18c0.58-0.56,1.15-0.84,1.73-0.84
		c0.31,0,0.59,0.1,0.82,0.3c0.24,0.2,0.35,0.48,0.35,0.84c0,0.34-0.2,0.85-0.61,1.53c-0.41,0.68-0.88,1.47-1.41,2.35
		c-0.54,0.89-1.01,1.81-1.41,2.76c-0.41,0.96-0.61,1.86-0.61,2.73c0,0.84,0.15,1.39,0.45,1.67c0.3,0.27,0.74,0.41,1.31,0.41
		c0.89,0,1.86-0.44,2.9-1.33s2.13-2.45,3.26-4.67l0.59,0.63c-0.92,2.3-2.08,4.09-3.49,5.38C131.8,38.11,130.28,38.75,128.66,38.75z
		 M133.29,21.05c-0.5,0-0.95-0.12-1.35-0.37c-0.41-0.25-0.61-0.63-0.61-1.16c0-0.63,0.34-1.16,1.02-1.61
		c0.68-0.44,1.39-0.67,2.12-0.67c0.47,0,0.87,0.1,1.2,0.31c0.33,0.21,0.49,0.59,0.49,1.14c0,0.55-0.3,1.08-0.9,1.59
		C134.65,20.8,133.99,21.05,133.29,21.05z"/>
	<path class="st0" d="M148.31,38.36c-1.02,0-1.8-0.25-2.33-0.77c-0.54-0.51-0.8-1.16-0.8-1.94c0-0.52,0.09-1.08,0.27-1.67
		c0.18-0.59,0.37-1.18,0.55-1.79c0.18-0.6,0.28-1.18,0.28-1.73c0-0.58-0.14-0.97-0.41-1.2c-0.27-0.22-0.59-0.33-0.96-0.33
		c-0.78,0-1.59,0.32-2.41,0.96c-0.82,0.64-1.62,1.45-2.39,2.41c-0.77,0.97-1.5,1.98-2.18,3.02c-0.68,1.05-1.27,1.99-1.76,2.82
		c-0.5,0-0.97-0.08-1.41-0.25c-0.44-0.17-0.82-0.46-1.14-0.88c0.03-0.13,0.18-0.53,0.45-1.2c0.27-0.67,0.58-1.46,0.92-2.39
		c0.34-0.93,0.64-1.9,0.9-2.92c0.26-1.02,0.39-1.95,0.39-2.78c0.18-0.21,0.46-0.42,0.84-0.63c0.38-0.21,0.78-0.31,1.2-0.31
		c0.92,0,1.37,0.39,1.37,1.18c0,0.31-0.06,0.78-0.18,1.39c-0.12,0.61-0.28,1.31-0.49,2.1c0.68-0.92,1.43-1.78,2.24-2.59
		c0.81-0.81,1.65-1.47,2.53-1.98c0.88-0.51,1.76-0.77,2.65-0.77c1.12,0,1.95,0.38,2.49,1.14c0.54,0.76,0.8,1.59,0.8,2.51
		c0,0.78-0.13,1.52-0.39,2.2c-0.26,0.68-0.52,1.32-0.77,1.92c-0.25,0.6-0.37,1.19-0.37,1.77c0,0.42,0.1,0.71,0.29,0.88
		c0.2,0.17,0.41,0.25,0.65,0.25c0.63,0,1.28-0.3,1.96-0.9c0.68-0.6,1.33-1.37,1.94-2.3c0.61-0.93,1.16-1.86,1.63-2.8l0.67,0.55
		c-0.55,1.28-1.17,2.45-1.86,3.51c-0.69,1.06-1.46,1.91-2.31,2.55C150.31,38.03,149.36,38.36,148.31,38.36z"/>
	<path class="st0" d="M155.61,48.56c-0.65,0-1.26-0.2-1.82-0.59c-0.56-0.39-0.84-1.03-0.84-1.92c0-0.84,0.24-1.59,0.73-2.26
		c0.48-0.67,1.12-1.28,1.92-1.84s1.65-1.08,2.57-1.55c0.92-0.47,1.81-0.92,2.67-1.33c0.29-0.71,0.56-1.46,0.82-2.28
		c0.26-0.81,0.51-1.69,0.75-2.63c-0.92,1.15-1.88,2.11-2.88,2.87c-1.01,0.76-2.03,1.14-3.08,1.14c-1.05,0-1.88-0.37-2.49-1.1
		s-0.92-1.7-0.92-2.9c0-1.39,0.35-2.69,1.04-3.9c0.69-1.22,1.59-2.3,2.69-3.26c1.1-0.95,2.28-1.7,3.53-2.24
		c1.25-0.54,2.46-0.8,3.61-0.8c0.84,0,1.46,0.15,1.88,0.45c0.42,0.3,0.63,0.65,0.63,1.04c0,0.31-0.09,0.56-0.27,0.75
		c-0.18,0.18-0.3,0.29-0.35,0.31c-0.26-0.29-0.53-0.48-0.8-0.57c-0.27-0.09-0.59-0.14-0.96-0.14c-1.02,0-2,0.29-2.94,0.86
		c-0.94,0.58-1.77,1.31-2.49,2.22c-0.72,0.9-1.29,1.84-1.71,2.81c-0.42,0.97-0.63,1.84-0.63,2.63c0,0.52,0.12,0.92,0.35,1.2
		c0.23,0.27,0.52,0.41,0.86,0.41c0.73,0,1.62-0.48,2.67-1.43c1.04-0.95,2.05-2.11,3.02-3.47c0.05-0.21,0.1-0.4,0.14-0.57
		s0.07-0.33,0.1-0.49c0.26-1.05,0.58-1.82,0.94-2.31c0.37-0.5,0.88-0.75,1.53-0.75c0.13,0,0.29,0.01,0.49,0.04
		c0.2,0.03,0.41,0.06,0.65,0.12c0,0.47-0.13,1.24-0.39,2.31c-0.26,1.07-0.61,2.32-1.06,3.75c-0.44,1.43-0.94,2.88-1.49,4.38
		c0.81-0.34,1.63-0.82,2.47-1.43c0.84-0.61,1.61-1.36,2.31-2.24c0.71-0.88,1.24-1.85,1.61-2.92l0.71,0.71
		c-0.42,1.2-1.07,2.3-1.94,3.3c-0.88,0.99-1.82,1.85-2.84,2.57c-1.02,0.72-1.96,1.27-2.83,1.67c-0.71,1.73-1.47,3.3-2.3,4.73
		c-0.82,1.42-1.7,2.56-2.63,3.41C157.68,48.13,156.68,48.56,155.61,48.56z M155.45,46.75c0.47,0,1.12-0.45,1.94-1.33
		c0.82-0.89,1.72-2.39,2.69-4.51c-0.97,0.47-1.86,0.96-2.67,1.45c-0.81,0.5-1.46,1.02-1.96,1.57c-0.5,0.55-0.75,1.13-0.75,1.73
		c0,0.34,0.07,0.61,0.22,0.8C155.07,46.65,155.24,46.75,155.45,46.75z"/>
	<path class="st0" d="M174.05,39.57c-1.31,0-2.36-0.27-3.16-0.8c-0.8-0.54-1.37-1.22-1.71-2.04c-0.34-0.82-0.51-1.67-0.51-2.53
		c0-0.76,0.11-1.35,0.31-1.76c0.21-0.42,0.47-0.73,0.78-0.92c0.31-0.2,0.61-0.35,0.88-0.45c0.27-0.1,0.48-0.22,0.61-0.35
		c0.65-0.68,1.33-1.47,2.02-2.37c0.69-0.9,1.29-1.9,1.78-3v-0.39c0-1.05,0.18-1.78,0.53-2.22c0.35-0.43,0.77-0.65,1.24-0.65
		c0.31,0,0.54,0.08,0.69,0.23c0.14,0.16,0.23,0.34,0.25,0.55c0,0.16-0.03,0.34-0.1,0.55c-0.07,0.21-0.1,0.5-0.1,0.86
		c0,0.78,0.19,1.68,0.57,2.69c0.38,1.01,0.76,2.07,1.14,3.2c0.38,1.12,0.57,2.28,0.57,3.45c0,0.31-0.01,0.6-0.04,0.86
		c-0.03,0.26-0.07,0.51-0.12,0.75c0.81-0.21,1.61-0.66,2.39-1.35c0.78-0.69,1.53-1.72,2.24-3.08l0.47,0.35
		c-0.5,1.49-1.22,2.69-2.16,3.59c-0.94,0.9-2.04,1.46-3.3,1.67c-0.42,1.07-1.11,1.87-2.06,2.39
		C176.33,39.31,175.25,39.57,174.05,39.57z M173.78,37.84c0.52,0,1.01-0.13,1.45-0.39c0.44-0.26,0.8-0.64,1.06-1.14
		c-1.07-0.23-2.04-0.65-2.9-1.26c-0.86-0.6-1.53-1.22-2-1.84c-0.37,0.08-0.55,0.43-0.55,1.06c0,0.86,0.25,1.67,0.75,2.43
		C172.08,37.47,172.81,37.84,173.78,37.84z M176.6,35.14c0.05-0.18,0.08-0.4,0.1-0.65c0.01-0.25,0.02-0.44,0.02-0.57
		c-0.03-1.18-0.18-2.34-0.47-3.49c-0.29-1.15-0.58-2.33-0.86-3.53c-0.47,0.81-1.02,1.69-1.65,2.63c-0.63,0.94-1.22,1.7-1.76,2.28
		c0.42,0.71,1.03,1.37,1.84,2C174.63,34.43,175.55,34.88,176.6,35.14z"/>
</g>
<g>
	<path class="st1" d="M213,5.13c-25.55-2.3-56.11,6-72.04,17.7c11.62-7,40.68-16.6,62.92-13.9c-3.01,3.3-8.62,9.9-11.72,15
		c1.3,0.2,1.3,0.1,2.61-0.1C198.27,19.43,207.99,8.83,213,5.13z"/>
	<path class="st2" d="M145.47,17.73c15.23-8.3,29.16-12.4,41.48-13.2c-3.41-1.4-6.41-2.9-9.12-4.5
		C165.41,2.13,155.09,8.53,145.47,17.73z"/>
	<path class="st3" d="M163.1,14.63c12.02-3.8,26.55-5.9,38.58-4.7c-5.61,6.4-9.22,11.8-9.02,12.3c0.2-1.7,0.8-3.3,1.6-4.7
		c1.9-3.6,0.8-5.1-1.5-5.8C186.95,9.93,170.22,13.33,163.1,14.63z"/>
</g>
</svg>
